<mxfile host="app.diagrams.net" modified="2024-02-22T11:45:16.033Z" agent="Mozilla/5.0 (Windows NT 10.0; Win64; x64) AppleWebKit/537.36 (KHTML, like Gecko) Chrome/122.0.0.0 Safari/537.36" etag="VoxeaJ38aD7hwmntXO_h" version="23.1.5" type="github">
  <diagram name="Страница — 1" id="sWE8JDKqMxTU_kem2LCD">
    <mxGraphModel dx="1434" dy="780" grid="1" gridSize="10" guides="1" tooltips="1" connect="1" arrows="1" fold="1" page="1" pageScale="1" pageWidth="827" pageHeight="1169" math="0" shadow="0">
      <root>
        <mxCell id="0" />
        <mxCell id="1" parent="0" />
        <mxCell id="yyG6dNRymgxT4dFkYv5_-1" value="Админ" style="shape=umlActor;verticalLabelPosition=bottom;verticalAlign=top;html=1;outlineConnect=0;align=center;labelBackgroundColor=none;fillColor=#fff2cc;strokeColor=#d6b656;" vertex="1" parent="1">
          <mxGeometry x="80" y="580" width="30" height="60" as="geometry" />
        </mxCell>
        <mxCell id="yyG6dNRymgxT4dFkYv5_-2" value="Пользователь&lt;br&gt;(преподаватель)" style="shape=umlActor;verticalLabelPosition=bottom;verticalAlign=top;html=1;outlineConnect=0;fillColor=#e1d5e7;strokeColor=#9673a6;" vertex="1" parent="1">
          <mxGeometry x="720" y="380" width="30" height="60" as="geometry" />
        </mxCell>
        <mxCell id="yyG6dNRymgxT4dFkYv5_-25" value="Управление дисциплинами" style="ellipse;whiteSpace=wrap;html=1;fillColor=#e1d5e7;strokeColor=#9673a6;" vertex="1" parent="1">
          <mxGeometry x="587" y="520" width="120" height="80" as="geometry" />
        </mxCell>
        <mxCell id="yyG6dNRymgxT4dFkYv5_-26" value="Управление группами" style="ellipse;whiteSpace=wrap;html=1;fillColor=#e1d5e7;strokeColor=#9673a6;" vertex="1" parent="1">
          <mxGeometry x="695" y="240" width="120" height="80" as="geometry" />
        </mxCell>
        <mxCell id="yyG6dNRymgxT4dFkYv5_-27" value="Управление студентами" style="ellipse;whiteSpace=wrap;html=1;fillColor=#e1d5e7;strokeColor=#9673a6;" vertex="1" parent="1">
          <mxGeometry x="570" y="320" width="120" height="80" as="geometry" />
        </mxCell>
        <mxCell id="yyG6dNRymgxT4dFkYv5_-28" value="Управление оценками" style="ellipse;whiteSpace=wrap;html=1;fillColor=#e1d5e7;strokeColor=#9673a6;" vertex="1" parent="1">
          <mxGeometry x="550" y="420" width="120" height="80" as="geometry" />
        </mxCell>
        <mxCell id="yyG6dNRymgxT4dFkYv5_-29" value="" style="endArrow=none;html=1;rounded=0;fillColor=#e1d5e7;strokeColor=#9673a6;" edge="1" parent="1" source="yyG6dNRymgxT4dFkYv5_-26" target="yyG6dNRymgxT4dFkYv5_-2">
          <mxGeometry width="50" height="50" relative="1" as="geometry">
            <mxPoint x="320" y="340" as="sourcePoint" />
            <mxPoint x="370" y="290" as="targetPoint" />
          </mxGeometry>
        </mxCell>
        <mxCell id="yyG6dNRymgxT4dFkYv5_-30" value="" style="endArrow=none;html=1;rounded=0;fillColor=#e1d5e7;strokeColor=#9673a6;" edge="1" parent="1" source="yyG6dNRymgxT4dFkYv5_-27" target="yyG6dNRymgxT4dFkYv5_-2">
          <mxGeometry width="50" height="50" relative="1" as="geometry">
            <mxPoint x="718" y="290" as="sourcePoint" />
            <mxPoint x="739" y="390" as="targetPoint" />
          </mxGeometry>
        </mxCell>
        <mxCell id="yyG6dNRymgxT4dFkYv5_-31" value="" style="endArrow=none;html=1;rounded=0;fillColor=#e1d5e7;strokeColor=#9673a6;" edge="1" parent="1" source="yyG6dNRymgxT4dFkYv5_-28" target="yyG6dNRymgxT4dFkYv5_-2">
          <mxGeometry width="50" height="50" relative="1" as="geometry">
            <mxPoint x="728" y="300" as="sourcePoint" />
            <mxPoint x="749" y="400" as="targetPoint" />
          </mxGeometry>
        </mxCell>
        <mxCell id="yyG6dNRymgxT4dFkYv5_-32" value="" style="endArrow=none;html=1;rounded=0;fillColor=#e1d5e7;strokeColor=#9673a6;" edge="1" parent="1" source="yyG6dNRymgxT4dFkYv5_-25" target="yyG6dNRymgxT4dFkYv5_-2">
          <mxGeometry width="50" height="50" relative="1" as="geometry">
            <mxPoint x="738" y="310" as="sourcePoint" />
            <mxPoint x="759" y="410" as="targetPoint" />
          </mxGeometry>
        </mxCell>
        <mxCell id="yyG6dNRymgxT4dFkYv5_-33" value="Добавление&lt;br&gt;дисциплины" style="ellipse;whiteSpace=wrap;html=1;fillColor=#e1d5e7;strokeColor=#9673a6;" vertex="1" parent="1">
          <mxGeometry x="575" y="810" width="110" height="70" as="geometry" />
        </mxCell>
        <mxCell id="yyG6dNRymgxT4dFkYv5_-34" value="Редактирование&lt;br&gt;дисциплины" style="ellipse;whiteSpace=wrap;html=1;fillColor=#e1d5e7;strokeColor=#9673a6;" vertex="1" parent="1">
          <mxGeometry x="500" y="720" width="120" height="60" as="geometry" />
        </mxCell>
        <mxCell id="yyG6dNRymgxT4dFkYv5_-35" value="Просмотр&lt;br&gt;дисциплин" style="ellipse;whiteSpace=wrap;html=1;fillColor=#e1d5e7;strokeColor=#9673a6;" vertex="1" parent="1">
          <mxGeometry x="460" y="640" width="90" height="60" as="geometry" />
        </mxCell>
        <mxCell id="yyG6dNRymgxT4dFkYv5_-36" value="Добавление оценки" style="ellipse;whiteSpace=wrap;html=1;fillColor=#e1d5e7;strokeColor=#9673a6;" vertex="1" parent="1">
          <mxGeometry x="405" y="550" width="110" height="70" as="geometry" />
        </mxCell>
        <mxCell id="yyG6dNRymgxT4dFkYv5_-37" value="Редактирование оценки" style="ellipse;whiteSpace=wrap;html=1;fillColor=#e1d5e7;strokeColor=#9673a6;" vertex="1" parent="1">
          <mxGeometry x="380" y="460" width="120" height="60" as="geometry" />
        </mxCell>
        <mxCell id="yyG6dNRymgxT4dFkYv5_-38" value="Просмотр оценок" style="ellipse;whiteSpace=wrap;html=1;fillColor=#e1d5e7;strokeColor=#9673a6;" vertex="1" parent="1">
          <mxGeometry x="410" y="380" width="90" height="60" as="geometry" />
        </mxCell>
        <mxCell id="yyG6dNRymgxT4dFkYv5_-39" value="Добавление студента" style="ellipse;whiteSpace=wrap;html=1;fillColor=#e1d5e7;strokeColor=#9673a6;" vertex="1" parent="1">
          <mxGeometry x="530" y="200" width="110" height="70" as="geometry" />
        </mxCell>
        <mxCell id="yyG6dNRymgxT4dFkYv5_-40" value="Редактирование студента" style="ellipse;whiteSpace=wrap;html=1;fillColor=#e1d5e7;strokeColor=#9673a6;" vertex="1" parent="1">
          <mxGeometry x="395" y="230" width="120" height="60" as="geometry" />
        </mxCell>
        <mxCell id="yyG6dNRymgxT4dFkYv5_-41" value="Просмотр студентов" style="ellipse;whiteSpace=wrap;html=1;fillColor=#e1d5e7;strokeColor=#9673a6;" vertex="1" parent="1">
          <mxGeometry x="380" y="310" width="90" height="60" as="geometry" />
        </mxCell>
        <mxCell id="yyG6dNRymgxT4dFkYv5_-42" value="Добавление группы" style="ellipse;whiteSpace=wrap;html=1;fillColor=#e1d5e7;strokeColor=#9673a6;" vertex="1" parent="1">
          <mxGeometry x="510" y="120" width="110" height="70" as="geometry" />
        </mxCell>
        <mxCell id="yyG6dNRymgxT4dFkYv5_-43" value="Редактирование группы" style="ellipse;whiteSpace=wrap;html=1;fillColor=#e1d5e7;strokeColor=#9673a6;" vertex="1" parent="1">
          <mxGeometry x="707" y="60" width="120" height="60" as="geometry" />
        </mxCell>
        <mxCell id="yyG6dNRymgxT4dFkYv5_-44" value="Просмотр групп" style="ellipse;whiteSpace=wrap;html=1;fillColor=#e1d5e7;strokeColor=#9673a6;" vertex="1" parent="1">
          <mxGeometry x="600" y="70" width="90" height="60" as="geometry" />
        </mxCell>
        <mxCell id="yyG6dNRymgxT4dFkYv5_-46" value="extend" style="endArrow=classic;html=1;rounded=0;fillColor=#e1d5e7;strokeColor=#9673a6;" edge="1" parent="1" source="yyG6dNRymgxT4dFkYv5_-33" target="yyG6dNRymgxT4dFkYv5_-25">
          <mxGeometry width="50" height="50" relative="1" as="geometry">
            <mxPoint x="270" y="490" as="sourcePoint" />
            <mxPoint x="320" y="440" as="targetPoint" />
          </mxGeometry>
        </mxCell>
        <mxCell id="yyG6dNRymgxT4dFkYv5_-47" value="extend" style="endArrow=classic;html=1;rounded=0;fillColor=#e1d5e7;strokeColor=#9673a6;" edge="1" parent="1" source="yyG6dNRymgxT4dFkYv5_-34" target="yyG6dNRymgxT4dFkYv5_-25">
          <mxGeometry width="50" height="50" relative="1" as="geometry">
            <mxPoint x="719" y="706" as="sourcePoint" />
            <mxPoint x="661" y="681" as="targetPoint" />
          </mxGeometry>
        </mxCell>
        <mxCell id="yyG6dNRymgxT4dFkYv5_-48" value="extend" style="endArrow=classic;html=1;rounded=0;fillColor=#e1d5e7;strokeColor=#9673a6;" edge="1" parent="1" source="yyG6dNRymgxT4dFkYv5_-35" target="yyG6dNRymgxT4dFkYv5_-25">
          <mxGeometry width="50" height="50" relative="1" as="geometry">
            <mxPoint x="729" y="716" as="sourcePoint" />
            <mxPoint x="671" y="691" as="targetPoint" />
          </mxGeometry>
        </mxCell>
        <mxCell id="yyG6dNRymgxT4dFkYv5_-49" value="extend" style="endArrow=classic;html=1;rounded=0;fillColor=#e1d5e7;strokeColor=#9673a6;" edge="1" parent="1" source="yyG6dNRymgxT4dFkYv5_-36" target="yyG6dNRymgxT4dFkYv5_-28">
          <mxGeometry width="50" height="50" relative="1" as="geometry">
            <mxPoint x="739" y="726" as="sourcePoint" />
            <mxPoint x="681" y="701" as="targetPoint" />
          </mxGeometry>
        </mxCell>
        <mxCell id="yyG6dNRymgxT4dFkYv5_-52" value="extend" style="endArrow=classic;html=1;rounded=0;fillColor=#e1d5e7;strokeColor=#9673a6;" edge="1" parent="1" source="yyG6dNRymgxT4dFkYv5_-37" target="yyG6dNRymgxT4dFkYv5_-28">
          <mxGeometry width="50" height="50" relative="1" as="geometry">
            <mxPoint x="427" y="592" as="sourcePoint" />
            <mxPoint x="513" y="545" as="targetPoint" />
          </mxGeometry>
        </mxCell>
        <mxCell id="yyG6dNRymgxT4dFkYv5_-53" value="extend" style="endArrow=classic;html=1;rounded=0;fillColor=#e1d5e7;strokeColor=#9673a6;" edge="1" parent="1" source="yyG6dNRymgxT4dFkYv5_-38" target="yyG6dNRymgxT4dFkYv5_-28">
          <mxGeometry width="50" height="50" relative="1" as="geometry">
            <mxPoint x="437" y="602" as="sourcePoint" />
            <mxPoint x="523" y="555" as="targetPoint" />
          </mxGeometry>
        </mxCell>
        <mxCell id="yyG6dNRymgxT4dFkYv5_-54" value="extend" style="endArrow=classic;html=1;rounded=0;fillColor=#e1d5e7;strokeColor=#9673a6;" edge="1" parent="1" source="yyG6dNRymgxT4dFkYv5_-41" target="yyG6dNRymgxT4dFkYv5_-27">
          <mxGeometry width="50" height="50" relative="1" as="geometry">
            <mxPoint x="447" y="612" as="sourcePoint" />
            <mxPoint x="533" y="565" as="targetPoint" />
          </mxGeometry>
        </mxCell>
        <mxCell id="yyG6dNRymgxT4dFkYv5_-55" value="extend" style="endArrow=classic;html=1;rounded=0;fillColor=#e1d5e7;strokeColor=#9673a6;" edge="1" parent="1" source="yyG6dNRymgxT4dFkYv5_-40" target="yyG6dNRymgxT4dFkYv5_-27">
          <mxGeometry width="50" height="50" relative="1" as="geometry">
            <mxPoint x="469" y="350" as="sourcePoint" />
            <mxPoint x="520" y="350" as="targetPoint" />
          </mxGeometry>
        </mxCell>
        <mxCell id="yyG6dNRymgxT4dFkYv5_-56" value="extend" style="endArrow=classic;html=1;rounded=0;fillColor=#e1d5e7;strokeColor=#9673a6;" edge="1" parent="1" source="yyG6dNRymgxT4dFkYv5_-39" target="yyG6dNRymgxT4dFkYv5_-27">
          <mxGeometry width="50" height="50" relative="1" as="geometry">
            <mxPoint x="479" y="360" as="sourcePoint" />
            <mxPoint x="530" y="360" as="targetPoint" />
          </mxGeometry>
        </mxCell>
        <mxCell id="yyG6dNRymgxT4dFkYv5_-57" value="extend" style="endArrow=classic;html=1;rounded=0;fillColor=#e1d5e7;strokeColor=#9673a6;" edge="1" parent="1" source="yyG6dNRymgxT4dFkYv5_-42" target="yyG6dNRymgxT4dFkYv5_-26">
          <mxGeometry width="50" height="50" relative="1" as="geometry">
            <mxPoint x="489" y="370" as="sourcePoint" />
            <mxPoint x="540" y="370" as="targetPoint" />
          </mxGeometry>
        </mxCell>
        <mxCell id="yyG6dNRymgxT4dFkYv5_-58" value="extend" style="endArrow=classic;html=1;rounded=0;fillColor=#e1d5e7;strokeColor=#9673a6;" edge="1" parent="1" source="yyG6dNRymgxT4dFkYv5_-44" target="yyG6dNRymgxT4dFkYv5_-26">
          <mxGeometry width="50" height="50" relative="1" as="geometry">
            <mxPoint x="499" y="380" as="sourcePoint" />
            <mxPoint x="550" y="380" as="targetPoint" />
          </mxGeometry>
        </mxCell>
        <mxCell id="yyG6dNRymgxT4dFkYv5_-59" value="extend" style="endArrow=classic;html=1;rounded=0;fillColor=#e1d5e7;strokeColor=#9673a6;" edge="1" parent="1" source="yyG6dNRymgxT4dFkYv5_-43" target="yyG6dNRymgxT4dFkYv5_-26">
          <mxGeometry width="50" height="50" relative="1" as="geometry">
            <mxPoint x="509" y="390" as="sourcePoint" />
            <mxPoint x="560" y="390" as="targetPoint" />
          </mxGeometry>
        </mxCell>
        <mxCell id="yyG6dNRymgxT4dFkYv5_-71" value="Выбор дисциплины" style="ellipse;whiteSpace=wrap;html=1;labelBackgroundColor=none;fillColor=#e1d5e7;strokeColor=#9673a6;" vertex="1" parent="1">
          <mxGeometry x="695" y="770" width="80" height="50" as="geometry" />
        </mxCell>
        <mxCell id="yyG6dNRymgxT4dFkYv5_-72" value="Выбор группы" style="ellipse;whiteSpace=wrap;html=1;labelBackgroundColor=none;fillColor=#e1d5e7;strokeColor=#9673a6;" vertex="1" parent="1">
          <mxGeometry x="695" y="870" width="80" height="50" as="geometry" />
        </mxCell>
        <mxCell id="yyG6dNRymgxT4dFkYv5_-73" value="include" style="edgeStyle=orthogonalEdgeStyle;rounded=0;orthogonalLoop=1;jettySize=auto;html=1;fillColor=#e1d5e7;strokeColor=#9673a6;" edge="1" parent="1" source="yyG6dNRymgxT4dFkYv5_-74" target="yyG6dNRymgxT4dFkYv5_-75">
          <mxGeometry relative="1" as="geometry" />
        </mxCell>
        <mxCell id="yyG6dNRymgxT4dFkYv5_-74" value="Выбор студента" style="ellipse;whiteSpace=wrap;html=1;labelBackgroundColor=none;fillColor=#e1d5e7;strokeColor=#9673a6;" vertex="1" parent="1">
          <mxGeometry x="695" y="960" width="80" height="50" as="geometry" />
        </mxCell>
        <mxCell id="yyG6dNRymgxT4dFkYv5_-75" value="Выставление оценки" style="ellipse;whiteSpace=wrap;html=1;labelBackgroundColor=none;fillColor=#e1d5e7;strokeColor=#9673a6;" vertex="1" parent="1">
          <mxGeometry x="695" y="1050" width="80" height="50" as="geometry" />
        </mxCell>
        <mxCell id="yyG6dNRymgxT4dFkYv5_-76" value="include" style="endArrow=classic;html=1;rounded=0;fillColor=#e1d5e7;strokeColor=#9673a6;" edge="1" parent="1" source="yyG6dNRymgxT4dFkYv5_-71" target="yyG6dNRymgxT4dFkYv5_-72">
          <mxGeometry width="50" height="50" relative="1" as="geometry">
            <mxPoint x="410" y="790" as="sourcePoint" />
            <mxPoint x="460" y="740" as="targetPoint" />
          </mxGeometry>
        </mxCell>
        <mxCell id="yyG6dNRymgxT4dFkYv5_-77" value="include" style="endArrow=classic;html=1;rounded=0;fillColor=#e1d5e7;strokeColor=#9673a6;" edge="1" parent="1" source="yyG6dNRymgxT4dFkYv5_-72" target="yyG6dNRymgxT4dFkYv5_-74">
          <mxGeometry width="50" height="50" relative="1" as="geometry">
            <mxPoint x="217" y="730" as="sourcePoint" />
            <mxPoint x="219" y="700" as="targetPoint" />
          </mxGeometry>
        </mxCell>
        <mxCell id="yyG6dNRymgxT4dFkYv5_-79" value="Управление Пользователями" style="ellipse;whiteSpace=wrap;html=1;fillColor=#fff2cc;strokeColor=#d6b656;" vertex="1" parent="1">
          <mxGeometry x="35" y="440" width="120" height="80" as="geometry" />
        </mxCell>
        <mxCell id="yyG6dNRymgxT4dFkYv5_-82" value="Добавление пользователей" style="ellipse;whiteSpace=wrap;html=1;fillColor=#fff2cc;strokeColor=#d6b656;" vertex="1" parent="1">
          <mxGeometry x="210" y="390" width="110" height="70" as="geometry" />
        </mxCell>
        <mxCell id="yyG6dNRymgxT4dFkYv5_-83" value="Редактирование пользователей" style="ellipse;whiteSpace=wrap;html=1;fillColor=#fff2cc;strokeColor=#d6b656;" vertex="1" parent="1">
          <mxGeometry x="150" y="310" width="120" height="60" as="geometry" />
        </mxCell>
        <mxCell id="yyG6dNRymgxT4dFkYv5_-84" value="Просмотр пользователей" style="ellipse;whiteSpace=wrap;html=1;fillColor=#fff2cc;strokeColor=#d6b656;" vertex="1" parent="1">
          <mxGeometry x="30" y="310" width="90" height="60" as="geometry" />
        </mxCell>
        <mxCell id="yyG6dNRymgxT4dFkYv5_-88" value="extend" style="endArrow=classic;html=1;rounded=0;fillColor=#fff2cc;strokeColor=#d6b656;" edge="1" parent="1" source="yyG6dNRymgxT4dFkYv5_-84" target="yyG6dNRymgxT4dFkYv5_-79">
          <mxGeometry width="50" height="50" relative="1" as="geometry">
            <mxPoint x="270" y="490" as="sourcePoint" />
            <mxPoint x="320" y="440" as="targetPoint" />
          </mxGeometry>
        </mxCell>
        <mxCell id="yyG6dNRymgxT4dFkYv5_-89" value="extend" style="endArrow=classic;html=1;rounded=0;fillColor=#fff2cc;strokeColor=#d6b656;" edge="1" parent="1" source="yyG6dNRymgxT4dFkYv5_-83" target="yyG6dNRymgxT4dFkYv5_-79">
          <mxGeometry width="50" height="50" relative="1" as="geometry">
            <mxPoint x="89" y="380" as="sourcePoint" />
            <mxPoint x="99" y="450" as="targetPoint" />
          </mxGeometry>
        </mxCell>
        <mxCell id="yyG6dNRymgxT4dFkYv5_-90" value="extend" style="endArrow=classic;html=1;rounded=0;fillColor=#fff2cc;strokeColor=#d6b656;" edge="1" parent="1" source="yyG6dNRymgxT4dFkYv5_-82" target="yyG6dNRymgxT4dFkYv5_-79">
          <mxGeometry width="50" height="50" relative="1" as="geometry">
            <mxPoint x="197" y="378" as="sourcePoint" />
            <mxPoint x="134" y="455" as="targetPoint" />
          </mxGeometry>
        </mxCell>
        <mxCell id="yyG6dNRymgxT4dFkYv5_-91" value="Сторонний сервис" style="shape=umlActor;verticalLabelPosition=bottom;verticalAlign=top;html=1;outlineConnect=0;fillColor=#dae8fc;strokeColor=#6c8ebf;" vertex="1" parent="1">
          <mxGeometry x="80" y="860" width="30" height="60" as="geometry" />
        </mxCell>
        <mxCell id="yyG6dNRymgxT4dFkYv5_-92" value="Получение данных о расписании" style="ellipse;whiteSpace=wrap;html=1;fillColor=#dae8fc;strokeColor=#6c8ebf;" vertex="1" parent="1">
          <mxGeometry x="190" y="850" width="110" height="80" as="geometry" />
        </mxCell>
        <mxCell id="yyG6dNRymgxT4dFkYv5_-95" value="" style="endArrow=none;html=1;rounded=0;fillColor=#fff2cc;strokeColor=#d6b656;" edge="1" parent="1" source="yyG6dNRymgxT4dFkYv5_-1" target="yyG6dNRymgxT4dFkYv5_-79">
          <mxGeometry width="50" height="50" relative="1" as="geometry">
            <mxPoint x="270" y="730" as="sourcePoint" />
            <mxPoint x="320" y="680" as="targetPoint" />
          </mxGeometry>
        </mxCell>
        <mxCell id="yyG6dNRymgxT4dFkYv5_-96" value="" style="endArrow=none;html=1;rounded=0;fillColor=#e1d5e7;strokeColor=#9673a6;" edge="1" parent="1" source="yyG6dNRymgxT4dFkYv5_-71" target="yyG6dNRymgxT4dFkYv5_-2">
          <mxGeometry width="50" height="50" relative="1" as="geometry">
            <mxPoint x="270" y="730" as="sourcePoint" />
            <mxPoint x="320" y="680" as="targetPoint" />
          </mxGeometry>
        </mxCell>
        <mxCell id="yyG6dNRymgxT4dFkYv5_-97" value="" style="endArrow=none;html=1;rounded=0;fillColor=#dae8fc;strokeColor=#6c8ebf;" edge="1" parent="1" source="yyG6dNRymgxT4dFkYv5_-92" target="yyG6dNRymgxT4dFkYv5_-91">
          <mxGeometry width="50" height="50" relative="1" as="geometry">
            <mxPoint x="270" y="730" as="sourcePoint" />
            <mxPoint x="320" y="680" as="targetPoint" />
          </mxGeometry>
        </mxCell>
        <mxCell id="yyG6dNRymgxT4dFkYv5_-98" value="extend" style="endArrow=classic;html=1;rounded=0;fillColor=#dae8fc;strokeColor=#6c8ebf;" edge="1" parent="1" source="yyG6dNRymgxT4dFkYv5_-92" target="yyG6dNRymgxT4dFkYv5_-36">
          <mxGeometry width="50" height="50" relative="1" as="geometry">
            <mxPoint x="270" y="730" as="sourcePoint" />
            <mxPoint x="320" y="680" as="targetPoint" />
          </mxGeometry>
        </mxCell>
        <mxCell id="yyG6dNRymgxT4dFkYv5_-99" value="БД &quot;Электронный журнал&quot;" style="ellipse;whiteSpace=wrap;html=1;" vertex="1" parent="1">
          <mxGeometry x="249" y="70" width="120" height="80" as="geometry" />
        </mxCell>
        <mxCell id="yyG6dNRymgxT4dFkYv5_-100" value="" style="endArrow=classic;html=1;rounded=0;" edge="1" parent="1" source="yyG6dNRymgxT4dFkYv5_-99" target="yyG6dNRymgxT4dFkYv5_-84">
          <mxGeometry width="50" height="50" relative="1" as="geometry">
            <mxPoint x="100" y="390" as="sourcePoint" />
            <mxPoint x="150" y="340" as="targetPoint" />
          </mxGeometry>
        </mxCell>
        <mxCell id="yyG6dNRymgxT4dFkYv5_-101" value="" style="endArrow=classic;html=1;rounded=0;" edge="1" parent="1" source="yyG6dNRymgxT4dFkYv5_-99" target="yyG6dNRymgxT4dFkYv5_-83">
          <mxGeometry width="50" height="50" relative="1" as="geometry">
            <mxPoint x="285" y="153" as="sourcePoint" />
            <mxPoint x="110" y="325" as="targetPoint" />
          </mxGeometry>
        </mxCell>
        <mxCell id="yyG6dNRymgxT4dFkYv5_-102" value="" style="endArrow=classic;html=1;rounded=0;" edge="1" parent="1" source="yyG6dNRymgxT4dFkYv5_-99" target="yyG6dNRymgxT4dFkYv5_-82">
          <mxGeometry width="50" height="50" relative="1" as="geometry">
            <mxPoint x="295" y="163" as="sourcePoint" />
            <mxPoint x="120" y="335" as="targetPoint" />
          </mxGeometry>
        </mxCell>
        <mxCell id="yyG6dNRymgxT4dFkYv5_-103" value="" style="endArrow=classic;html=1;rounded=0;" edge="1" parent="1" source="yyG6dNRymgxT4dFkYv5_-99" target="yyG6dNRymgxT4dFkYv5_-43">
          <mxGeometry width="50" height="50" relative="1" as="geometry">
            <mxPoint x="305" y="173" as="sourcePoint" />
            <mxPoint x="130" y="345" as="targetPoint" />
            <Array as="points">
              <mxPoint x="540" y="20" />
            </Array>
          </mxGeometry>
        </mxCell>
        <mxCell id="yyG6dNRymgxT4dFkYv5_-104" value="" style="endArrow=classic;html=1;rounded=0;" edge="1" parent="1" source="yyG6dNRymgxT4dFkYv5_-99" target="yyG6dNRymgxT4dFkYv5_-44">
          <mxGeometry width="50" height="50" relative="1" as="geometry">
            <mxPoint x="315" y="183" as="sourcePoint" />
            <mxPoint x="140" y="355" as="targetPoint" />
          </mxGeometry>
        </mxCell>
        <mxCell id="yyG6dNRymgxT4dFkYv5_-105" value="" style="endArrow=classic;html=1;rounded=0;" edge="1" parent="1" source="yyG6dNRymgxT4dFkYv5_-99" target="yyG6dNRymgxT4dFkYv5_-42">
          <mxGeometry width="50" height="50" relative="1" as="geometry">
            <mxPoint x="325" y="193" as="sourcePoint" />
            <mxPoint x="150" y="365" as="targetPoint" />
          </mxGeometry>
        </mxCell>
        <mxCell id="yyG6dNRymgxT4dFkYv5_-106" value="" style="endArrow=classic;html=1;rounded=0;" edge="1" parent="1" source="yyG6dNRymgxT4dFkYv5_-99" target="yyG6dNRymgxT4dFkYv5_-39">
          <mxGeometry width="50" height="50" relative="1" as="geometry">
            <mxPoint x="335" y="203" as="sourcePoint" />
            <mxPoint x="160" y="375" as="targetPoint" />
          </mxGeometry>
        </mxCell>
        <mxCell id="yyG6dNRymgxT4dFkYv5_-107" value="" style="endArrow=classic;html=1;rounded=0;" edge="1" parent="1" source="yyG6dNRymgxT4dFkYv5_-99" target="yyG6dNRymgxT4dFkYv5_-40">
          <mxGeometry width="50" height="50" relative="1" as="geometry">
            <mxPoint x="345" y="213" as="sourcePoint" />
            <mxPoint x="170" y="385" as="targetPoint" />
          </mxGeometry>
        </mxCell>
        <mxCell id="yyG6dNRymgxT4dFkYv5_-108" value="" style="endArrow=classic;html=1;rounded=0;" edge="1" parent="1" source="yyG6dNRymgxT4dFkYv5_-99" target="yyG6dNRymgxT4dFkYv5_-41">
          <mxGeometry width="50" height="50" relative="1" as="geometry">
            <mxPoint x="355" y="223" as="sourcePoint" />
            <mxPoint x="180" y="395" as="targetPoint" />
          </mxGeometry>
        </mxCell>
        <mxCell id="yyG6dNRymgxT4dFkYv5_-109" value="" style="endArrow=classic;html=1;rounded=0;" edge="1" parent="1" source="yyG6dNRymgxT4dFkYv5_-99" target="yyG6dNRymgxT4dFkYv5_-38">
          <mxGeometry width="50" height="50" relative="1" as="geometry">
            <mxPoint x="365" y="233" as="sourcePoint" />
            <mxPoint x="190" y="405" as="targetPoint" />
            <Array as="points">
              <mxPoint x="380" y="370" />
            </Array>
          </mxGeometry>
        </mxCell>
        <mxCell id="yyG6dNRymgxT4dFkYv5_-110" value="" style="endArrow=classic;html=1;rounded=0;" edge="1" parent="1" source="yyG6dNRymgxT4dFkYv5_-99" target="yyG6dNRymgxT4dFkYv5_-37">
          <mxGeometry width="50" height="50" relative="1" as="geometry">
            <mxPoint x="375" y="243" as="sourcePoint" />
            <mxPoint x="200" y="415" as="targetPoint" />
            <Array as="points">
              <mxPoint x="370" y="390" />
            </Array>
          </mxGeometry>
        </mxCell>
        <mxCell id="yyG6dNRymgxT4dFkYv5_-111" value="" style="endArrow=classic;html=1;rounded=0;" edge="1" parent="1" source="yyG6dNRymgxT4dFkYv5_-99" target="yyG6dNRymgxT4dFkYv5_-36">
          <mxGeometry width="50" height="50" relative="1" as="geometry">
            <mxPoint x="385" y="253" as="sourcePoint" />
            <mxPoint x="210" y="425" as="targetPoint" />
            <Array as="points">
              <mxPoint x="380" y="520" />
            </Array>
          </mxGeometry>
        </mxCell>
        <mxCell id="yyG6dNRymgxT4dFkYv5_-112" value="" style="endArrow=classic;html=1;rounded=0;" edge="1" parent="1" source="yyG6dNRymgxT4dFkYv5_-99" target="yyG6dNRymgxT4dFkYv5_-35">
          <mxGeometry width="50" height="50" relative="1" as="geometry">
            <mxPoint x="395" y="263" as="sourcePoint" />
            <mxPoint x="220" y="435" as="targetPoint" />
            <Array as="points">
              <mxPoint x="380" y="600" />
            </Array>
          </mxGeometry>
        </mxCell>
        <mxCell id="yyG6dNRymgxT4dFkYv5_-113" value="" style="endArrow=classic;html=1;rounded=0;" edge="1" parent="1" source="yyG6dNRymgxT4dFkYv5_-99" target="yyG6dNRymgxT4dFkYv5_-34">
          <mxGeometry width="50" height="50" relative="1" as="geometry">
            <mxPoint x="405" y="273" as="sourcePoint" />
            <mxPoint x="230" y="445" as="targetPoint" />
            <Array as="points">
              <mxPoint x="360" y="630" />
            </Array>
          </mxGeometry>
        </mxCell>
        <mxCell id="yyG6dNRymgxT4dFkYv5_-114" value="" style="endArrow=classic;html=1;rounded=0;" edge="1" parent="1" source="yyG6dNRymgxT4dFkYv5_-99" target="yyG6dNRymgxT4dFkYv5_-33">
          <mxGeometry width="50" height="50" relative="1" as="geometry">
            <mxPoint x="415" y="283" as="sourcePoint" />
            <mxPoint x="240" y="455" as="targetPoint" />
            <Array as="points">
              <mxPoint x="340" y="680" />
            </Array>
          </mxGeometry>
        </mxCell>
      </root>
    </mxGraphModel>
  </diagram>
</mxfile>
